<!-- Generated by IcoMoon.io -->
<svg version="1.1" xmlns="http://www.w3.org/2000/svg" width="1024" height="1024" viewBox="0 0 1024 1024">
<title></title>
<g id="icomoon-ignore">
</g>
<path d="M807.253 256.427c-8.533-25.173-32.427-43.093-60.587-43.093h-469.333c-28.16 0-51.627 17.92-60.587 43.093l-88.747 255.573v341.333c0 23.467 19.2 42.667 42.667 42.667h42.667c23.467 0 42.667-19.2 42.667-42.667v-42.667h512v42.667c0 23.467 19.2 42.667 42.667 42.667h42.667c23.467 0 42.667-19.2 42.667-42.667v-341.333l-88.747-255.573zM277.333 682.667c-35.413 0-64-28.587-64-64s28.587-64 64-64c35.413 0 64 28.587 64 64s-28.587 64-64 64zM746.667 682.667c-35.413 0-64-28.587-64-64s28.587-64 64-64c35.413 0 64 28.587 64 64s-28.587 64-64 64zM213.333 469.333l64-192h469.333l64 192h-597.333z"></path>
</svg>
