<!-- Generated by IcoMoon.io -->
<svg version="1.1" xmlns="http://www.w3.org/2000/svg" width="1024" height="1024" viewBox="0 0 1024 1024">
<title></title>
<g id="icomoon-ignore">
</g>
<path d="M530.268 813.587l348.926-604.358c14.984-25.953 6.092-59.139-19.861-74.123s-59.139-6.092-74.123 19.861l-348.926 604.358 7.477 95.573 86.507-41.311zM973.163 328.981l-139.269 241.221-44.34-25.6 139.269-241.221-33.65-19.428-328.507 568.991-168.133 80.29-14.533-185.753 356.869-618.115c24.071-41.693 72.311-60.731 116.805-49.637l31.924-55.294 60.889 35.154-34.060 58.993c24.698 32.783 28.924 78.459 7.107 116.246l-2.762 4.784 77.991 45.028-25.6 44.341zM700.302 301.454l94.663 54.653-25.6 44.341-94.663-54.653 25.6-44.341zM344.212 892.614c11.768-7.836 27.661-4.648 35.497 7.12s4.648 27.661-7.12 35.497c-78.652 52.371-153.412 44.005-214.994-24.54-90.973-101.259-111.667-316.341-27.456-394.612 95.060-88.354 229.887 37.339 180.717 149.938-5.658 12.957-20.749 18.874-33.706 13.216s-18.874-20.749-13.216-33.706c28.883-66.143-48.792-138.556-98.939-91.946-61.053 56.746-43.378 240.454 30.686 322.892 44.376 49.393 90.791 54.587 148.531 16.141z"></path>
</svg>
