<!-- Generated by IcoMoon.io -->
<svg version="1.1" xmlns="http://www.w3.org/2000/svg" width="1024" height="1024" viewBox="0 0 1024 1024">
<title></title>
<g id="icomoon-ignore">
</g>
<path d="M696.050 135.462c132.757 0 231.587 101.348 231.587 233.431 0 47.136-12.945 92.495-38.571 138.5-46.282 83.088-107.943 144.52-303.577 316.388l-73.424 64.757-73.536-64.364c-196.54-173.034-257.753-234.121-303.916-317.348-25.413-45.817-38.249-90.995-38.249-137.933 0-132.083 98.83-233.431 231.587-233.431 60.536 0 126.006 40.968 184.050 100.946 58.044-59.978 123.514-100.946 184.050-100.946zM551.659 785.349c190.308-167.189 250.507-227.165 292.678-302.872 21.566-38.717 32.1-75.625 32.1-113.585 0-104.090-76.199-182.231-180.387-182.231-48.263 0-111.262 43.475-164.822 104.41l-19.228 21.876-19.228-21.876c-53.56-60.935-116.559-104.41-164.822-104.41-104.187 0-180.387 78.14-180.387 182.231 0 37.797 10.444 74.552 31.823 113.099 42.050 75.813 101.831 135.47 292.919 303.705l39.63 34.687 39.724-35.034z"></path>
</svg>
