<!-- Generated by IcoMoon.io -->
<svg version="1.1" xmlns="http://www.w3.org/2000/svg" width="1024" height="1024" viewBox="0 0 1024 1024">
<title></title>
<g id="icomoon-ignore">
</g>
<path d="M533.064 907.952l-21.064 30.494-21.064-30.494c-176.532-255.568-264.803-432.11-264.803-535.083 0-157.88 127.987-285.867 285.867-285.867s285.867 127.987 285.867 285.867c0 102.973-88.271 279.515-264.803 535.083zM746.667 372.869c0-129.603-105.064-234.667-234.667-234.667s-234.667 105.064-234.667 234.667c0 84.952 78.219 244.964 234.667 475.24 156.447-230.276 234.667-390.288 234.667-475.24zM512 520.667c-76.913 0-139.264-62.351-139.264-139.264s62.351-139.264 139.264-139.264c76.913 0 139.264 62.351 139.264 139.264s-62.351 139.264-139.264 139.264zM512 469.467c48.636 0 88.064-39.428 88.064-88.064s-39.428-88.064-88.064-88.064c-48.636 0-88.064 39.428-88.064 88.064s39.428 88.064 88.064 88.064z"></path>
</svg>
