<!-- Generated by IcoMoon.io -->
<svg version="1.1" xmlns="http://www.w3.org/2000/svg" width="1024" height="1024" viewBox="0 0 1024 1024">
<title></title>
<g id="icomoon-ignore">
</g>
<path d="M591.2 512c0 43.741-35.459 79.2-79.2 79.2s-79.2-35.459-79.2-79.2c0-43.741 35.459-79.2 79.2-79.2s79.2 35.459 79.2 79.2zM1024 512c0 56.554-45.846 102.4-102.4 102.4s-102.4-45.846-102.4-102.4c0-56.554 45.846-102.4 102.4-102.4s102.4 45.846 102.4 102.4zM512 903.813c216.392 0 391.813-175.42 391.813-391.813s-175.42-391.813-391.813-391.813c-216.392 0-391.813 175.42-391.813 391.813s175.42 391.813 391.813 391.813zM512 955.013c-244.669 0-443.013-198.343-443.013-443.013s198.343-443.013 443.013-443.013c244.669 0 443.013 198.343 443.013 443.013s-198.343 443.013-443.013 443.013zM563.2 537.6v-51.2h416.224v51.2z"></path>
</svg>
