<!-- Generated by IcoMoon.io -->
<svg version="1.1" xmlns="http://www.w3.org/2000/svg" width="1024" height="1024" viewBox="0 0 1024 1024">
<title></title>
<g id="icomoon-ignore">
</g>
<path d="M954.347 440.81l-410.116-228.635c-17.661-9.833-46.843-9.833-64.483 0l-410.094 228.627c-11.729 6.542-18.453 16.871-18.453 28.349s6.725 21.815 18.453 28.357l67.946 37.875v89.354l-42.768 187.060c-1.346 5.889 0.526 12.1 4.802 15.958 0.878 0.795 21.787 19.351 52.365 19.351s51.494-18.556 52.365-19.351c4.277-3.858 6.149-10.069 4.802-15.958l-42.768-187.060v-73.301l71.999 40.142v105.878c0 83.874 127.849 172.945 273.598 172.945s273.598-89.070 273.598-172.945v-105.862l168.752-94.077c11.729-6.534 18.446-16.863 18.453-28.341 0-11.486-6.725-21.815-18.453-28.365zM151.999 815.623c-11.268 0-20.657-3.865-26.697-7.243l26.697-116.782 26.697 116.782c-6.055 3.385-15.444 7.243-26.697 7.243zM737.952 698.846c0 53.766-98.703 125.189-225.956 125.189s-225.956-71.424-225.956-125.189v-82.905l196.196 109.377c8.148 4.549 18.721 7.056 29.773 7.056 11.032 0 21.599-2.5 29.753-7.034l196.19-109.384v82.89zM529.915 683.108c-8.942 4.981-26.888 4.988-35.817-0.015l-268.006-148.308 260.162-58.35c7.388 6.872 12.844 7.438 25.742 7.438 22.292 0 40.372-13.177 40.372-29.429s-18.080-29.429-40.372-29.429c-17.172 0-31.8 7.828-37.633 18.849l-296.808 62.765-66.721-37.198c-0.22-0.245 127.53-71.652 383.251-214.221 8.922-4.981 26.881-4.981 35.81 0l383.264 213.669c0.224 0.25-127.524 71.66-383.244 214.228z"></path>
</svg>
