<!-- Generated by IcoMoon.io -->
<svg version="1.1" xmlns="http://www.w3.org/2000/svg" width="1024" height="1024" viewBox="0 0 1024 1024">
<title></title>
<g id="icomoon-ignore">
</g>
<path d="M479.777 642.337c-4.765-4.915-10.532-7.385-17.277-7.385-6.867 0-12.658 2.495-17.374 7.486l-129.244 133.315v-392.863c0-6.957-2.395-12.906-7.16-17.821s-10.532-7.385-17.277-7.385c-6.744 0-12.511 2.47-17.277 7.385s-7.16 10.864-7.16 17.821v392.863l-129.244-133.315c-4.716-4.991-10.508-7.486-17.374-7.486-6.744 0-12.511 2.47-17.277 7.385s-7.16 10.864-7.16 17.821c0 7.083 2.346 13.057 7.062 17.922l171.055 176.443c4.961 4.865 10.752 7.285 17.374 7.285s12.414-2.42 17.374-7.285l171.055-176.443c4.716-4.991 7.062-10.965 7.062-17.922s-2.395-12.906-7.16-17.821zM920.885 381.663c-4.765 4.915-10.532 7.385-17.277 7.385-6.867 0-12.658-2.495-17.374-7.486l-129.244-133.315v392.863c0 6.957-2.395 12.906-7.16 17.821s-10.532 7.385-17.277 7.385c-6.744 0-12.511-2.47-17.277-7.385s-7.16-10.864-7.16-17.821v-392.863l-129.244 133.315c-4.716 4.991-10.508 7.486-17.374 7.486-6.744 0-12.511-2.47-17.277-7.385s-7.16-10.864-7.16-17.821c0-7.083 2.346-13.057 7.062-17.922l171.055-176.443c4.961-4.865 10.752-7.285 17.374-7.285s12.414 2.42 17.374 7.285l171.055 176.443c4.716 4.991 7.062 10.965 7.062 17.922s-2.395 12.906-7.16 17.821z"></path>
</svg>
