<!-- Generated by IcoMoon.io -->
<svg version="1.1" xmlns="http://www.w3.org/2000/svg" width="1024" height="1024" viewBox="0 0 1024 1024">
<title></title>
<g id="icomoon-ignore">
</g>
<path d="M686.339 179.048h151.705c14.138 0 25.6 11.462 25.6 25.6s-11.462 25.6-25.6 25.6h-651.239c-14.138 0-25.6-11.462-25.6-25.6s11.462-25.6 25.6-25.6h158.895l0.069-13.624c-0.096-0.814-0.096-0.814-0.2-2.145-0.857-12.769 2.061-27.646 11.953-42.038 16.627-24.189 47.637-37.599 93.148-37.599h57.009c2.896 0 5.679 0.481 8.275 1.367 2.596-0.886 5.379-1.367 8.275-1.367h56.983c45.508 0 76.521 13.407 93.157 37.591 9.901 14.394 12.824 29.275 11.971 42.042-0.103 1.324-0.103 1.324-0.002-1.034v16.805zM635.249 179.048l0.086-19.974c-0.044 0.383-0.058 0.512-0.068 0.617 0.12-2.144-0.632-5.878-3.082-9.44-6.15-8.941-21.111-15.408-50.973-15.408h-56.983c-2.896 0-5.679-0.481-8.275-1.367-2.596 0.886-5.379 1.367-8.275 1.367h-57.009c-29.86 0-44.813 6.466-50.955 15.401-2.472 3.596-3.212 7.369-3.061 9.607-0.016-0.212-0.016-0.212 0.117 2.391v16.805h238.479zM768.127 910.925c-0.588 6.603-3.649 12.435-8.219 16.616-4.699 4.273-10.876 6.786-17.536 6.712h-460.146c-13.257 0-24.321-10.121-25.499-23.327l-53.026-594.734c-1.256-14.083 9.143-26.517 23.225-27.772s26.517 9.143 27.772 23.225l50.947 571.408h436.983l-25.499 23.328 53-594.734c3.030-33.999 54.028-29.454 50.998 4.545l-53 594.734c-0.594 6.66-3.687 12.496-8.273 16.665-4.517 4.132-10.597 6.662-17.226 6.662-0.924-0.007-1.596-0.041-2.272-0.101-14.083-1.255-24.482-13.689-23.227-27.771l53-594.734 50.998 4.545-53 594.734zM662.897 788.892c-1.103 14.095-13.424 24.628-27.52 23.524s-24.628-13.424-23.524-27.52l31.81-406.394c1.103-14.095 13.424-24.628 27.52-23.524s24.628 13.424 23.524 27.52l-31.81 406.394zM351.583 363.861c4.257-4.98 10.414-8.336 17.462-8.888 14.095-1.103 26.416 9.429 27.52 23.524l31.81 406.394c2.664 34.029-48.38 38.025-51.044 3.995l-31.81-406.394c-0.552-7.048 1.806-13.652 6.063-18.632zM494.386 380.495c0-14.138 11.462-25.6 25.6-25.6s25.6 11.462 25.6 25.6v394.631c0 14.138-11.462 25.6-25.6 25.6s-25.6-11.462-25.6-25.6v-394.631z"></path>
</svg>
